#!OML:ASF F:\VICON\USERDATA\INSTALL\rory3\rory3.ASF
:FULLY-SPECIFIED
:DEGREES
3980
root 0.408117 16.6361 -0.448683 -7.7917 -75.4406 15.1757
lowerback 16.9388 2.4241 -1.57878
upperback 2.45975 2.91056 1.50897
thorax -7.01139 1.42311 1.85232
lowerneck -25.836 5.29146 -7.52761
upperneck 17.6478 10.0481 -0.183009
head 9.43713 4.08309 2.6254
rclavicle -7.27552e-014 1.51076e-014
rhumerus -32.3485 -2.90399 -70.672
rradius 84.8154
rwrist -17.4018
rhand -17.7499 24.5848
rfingers 7.12502
rthumb 8.51174 -5.22362
lclavicle -7.27552e-014 1.51076e-014
lhumerus -15.8603 6.81492 84.3981
lradius 119.577
lwrist 8.02486
lhand -15.726 8.66632
lfingers 7.12502
lthumb 10.4645 38.3859
rfemur -17.6981 -11.6467 -0.973856
rtibia 57.6496
rfoot -13.7079 6.95294
rtoes -12.3477
lfemur -36.8792 5.84939 -5.22259
ltibia 48.7367
lfoot -0.683149 -12.8814
ltoes -33.9808
3981
root 0.421666 16.6243 -0.479903 -9.81925 -75.9525 16.8764
lowerback 16.845 2.43757 -1.55028
upperback 2.59287 2.93224 1.56115
thorax -6.81948 1.42946 1.89248
lowerneck -25.9418 5.47404 -7.02377
upperneck 17.6452 10.1527 -0.301627
head 9.48136 4.15063 2.528
rclavicle -7.95139e-015 4.77083e-015
rhumerus -31.9867 -3.14847 -71.259
rradius 85.4867
rwrist -17.0535
rhand -17.8743 24.5543
rfingers 7.12502
rthumb 8.39167 -5.25901
lclavicle -7.95139e-015 4.77083e-015
lhumerus -15.6523 7.1847 84.1048
lradius 119.673
lwrist 8.06014
lhand -14.9946 8.22686
lfingers 7.12502
lthumb 11.1699 37.9095
rfemur -17.2413 -11.0208 -0.884488
rtibia 57.2126
rfoot -15.6302 6.03508
rtoes -13.3795
lfemur -36.0934 6.1445 -5.8716
ltibia 48.9383
lfoot -1.1502 -13.1798
ltoes -30.3698
3982
root 0.43089 16.6104 -0.51633 -12.127 -76.4324 18.8828
lowerback 16.7546 2.42335 -1.6444
upperback 2.68536 2.89896 1.63754
thorax -6.67813 1.41346 2.0395
lowerneck -25.9503 5.67656 -6.65877
upperneck 17.6006 10.332 -0.460134
head 9.4883 4.2411 2.44329
rclavicle 0 1.27222e-014
rhumerus -31.4275 -3.23785 -71.7479
rradius 85.9698
rwrist -16.8488
rhand -17.5001 24.4009
rfingers 7.12502
rthumb 8.75272 -5.39765
lclavicle 0 1.27222e-014
lhumerus -15.5056 7.36899 83.6942
lradius 119.918
lwrist 9.08938
lhand -15.2498 8.45157
lfingers 7.12502
lthumb 10.9238 38.1474
rfemur -16.7558 -10.2802 -0.842532
rtibia 56.6923
rfoot -17.79 4.91697
rtoes -14.1589
lfemur -35.178 6.2606 -6.41903
ltibia 48.5464
lfoot -1.65403 -10.0358
ltoes -30.429
3983
root 0.438762 16.5931 -0.552038 -14.7379 -76.7804 21.1394
lowerback 16.7917 2.32505 -1.8034
upperback 2.70712 2.75039 1.80522
thorax -6.68346 1.34566 2.34185
lowerneck -25.6853 5.86102 -6.77829
upperneck 17.51 10.6082 -0.500542
head 9.39766 4.3649 2.47264
rclavicle 2.34566e-014 6.36111e-015
rhumerus -30.906 -2.85959 -72.1374
rradius 86.2405
rwrist -16.5762
rhand -17.4242 24.2905
rfingers 7.12502
rthumb 8.82601 -5.50493
lclavicle 2.34566e-014 6.36111e-015
lhumerus -15.6729 7.52629 83.4484
lradius 120.135
lwrist 8.8321
lhand -16.1613 9.15236
lfingers 7.12502
lthumb 10.0445 38.8927
rfemur -16.1359 -9.5074 -0.902272
rtibia 56.1212
rfoot -19.6732 4.1467
rtoes -14.8196
lfemur -34.099 6.04324 -6.8599
ltibia 47.6363
lfoot -1.47953 -6.07857
ltoes -26.0636
3984
root 0.445333 16.5709 -0.589601 -16.7899 -77.0851 22.8264
lowerback 16.8539 2.26873 -1.77545
upperback 2.69922 2.68762 1.92258
thorax -6.72685 1.31555 2.4641
lowerneck -25.2699 5.94273 -6.96403
upperneck 17.2903 10.7342 -0.494014
head 9.23493 4.43026 2.49588
rclavicle -6.55989e-014 -1.59028e-015
rhumerus -30.4782 -2.95464 -72.7353
rradius 86.3722
rwrist -16.03
rhand -17.4367 24.251
rfingers 7.12502
rthumb 8.81391 -5.54495
lclavicle -6.55989e-014 -1.59028e-015
lhumerus -15.8882 7.76272 83.139
lradius 120.199
lwrist 8.59643
lhand -16.3104 8.93877
lfingers 7.12502
lthumb 9.90065 38.686
rfemur -15.4992 -8.7341 -0.850275
rtibia 55.5582
rfoot -21.1847 3.76853
rtoes -15.9385
lfemur -32.99 5.61664 -6.95015
ltibia 46.4279
lfoot -2.77646 -4.5225
ltoes -30.1258
3985
root 0.448858 16.5512 -0.631873 -18.8639 -77.2948 24.6306
lowerback 16.8395 2.23199 -1.83749
upperback 2.68234 2.63303 1.98278
thorax -6.73966 1.29156 2.57639
lowerneck -25.1956 6.02036 -6.98429
upperneck 17.36 10.8655 -0.583286
head 9.24742 4.47554 2.48614
rclavicle 2.10712e-014 1.59028e-014
rhumerus -30.0778 -3.25389 -73.4365
rradius 86.5305
rwrist -15.6327
rhand -17.4474 24.0957
rfingers 7.12502
rthumb 8.80364 -5.70068
lclavicle 2.10712e-014 1.59028e-014
lhumerus -16.0425 7.90644 82.6932
lradius 120.21
lwrist 8.49199
lhand -16.4378 8.85134
lfingers 7.12502
lthumb 9.77776 38.6043
rfemur -14.9694 -7.98512 -0.885761
rtibia 55.0712
rfoot -22.6265 3.36933
rtoes -17.2361
lfemur -31.9691 5.04077 -6.94498
ltibia 45.2224
lfoot -4.06108 -4.39494
ltoes -33.0547
3986
root 0.454442 16.5341 -0.679578 -20.2873 -77.4669 25.8812
lowerback 16.8718 2.15274 -1.76445
upperback 2.56812 2.54868 2.02025
thorax -6.8734 1.25301 2.59203
lowerneck -25.2276 6.15152 -6.86125
upperneck 17.6529 11.0675 -0.774117
head 9.36948 4.53565 2.44287
rclavicle -1.11319e-014 1.43125e-014
rhumerus -29.8701 -3.28302 -74.1928
rradius 86.6661
rwrist -15.4468
rhand -17.6737 24.0491
rfingers 7.12502
rthumb 8.58524 -5.75633
lclavicle -1.11319e-014 1.43125e-014
lhumerus -16.3186 7.97385 82.2502
lradius 120.296
lwrist 8.28878
lhand -16.4188 9.28148
lfingers 7.12502
lthumb 9.79608 39.0336
rfemur -14.6289 -7.09282 -0.771807
rtibia 54.6823
rfoot -24.1243 2.65232
rtoes -18.0918
lfemur -31.1253 4.51595 -6.80342
ltibia 44.2651
lfoot -4.74199 -4.13878
ltoes -34.858
3987
root 0.462991 16.511 -0.726705 -20.7104 -77.5836 26.2364
lowerback 16.902 1.99862 -1.39207
upperback 2.3599 2.42058 2.00563
thorax -7.08974 1.18756 2.3909
lowerneck -24.9782 6.30549 -6.70663
upperneck 17.7885 11.2565 -0.969976
head 9.39119 4.60489 2.37483
rclavicle -2.66371e-014 9.54166e-015
rhumerus -29.7579 -3.21306 -75.0167
rradius 86.7532
rwrist -15.28
rhand -18.125 24.0459
rfingers 7.12502
rthumb 8.14968 -5.77689
lclavicle -2.66371e-014 9.54166e-015
lhumerus -16.7768 7.99716 81.9861
lradius 120.502
lwrist 7.8928
lhand -16.4626 9.6873
lfingers 7.12502
lthumb 9.75387 39.4414
rfemur -14.4598 -6.37309 -0.506339
rtibia 54.412
rfoot -25.3737 2.11688
rtoes -18.5991
lfemur -30.5987 4.06403 -6.51855
ltibia 43.6138
lfoot -4.98702 -3.6545
ltoes -36.2534
3988
root 0.463814 16.4843 -0.770352 -20.4478 -77.5612 26.0596
lowerback 16.5829 1.8007 -1.03884
upperback 2.19702 2.23765 2.05217
thorax -7.06816 1.09469 2.28652
lowerneck -24.8329 6.48037 -6.56904
upperneck 17.9402 11.4973 -1.1924
head 9.4365 4.69068 2.31221
rclavicle 2.38542e-015 -7.95139e-015
rhumerus -29.5376 -3.06542 -75.7466
rradius 86.8172
rwrist -14.8227
rhand -18.264 23.9063
rfingers 7.12502
rthumb 8.01555 -5.92169
lclavicle 2.38542e-015 -7.95139e-015
lhumerus -17.0614 8.06715 81.7731
lradius 120.571
lwrist 7.48507
lhand -16.4917 9.54309
lfingers 7.12502
lthumb 9.72575 39.2985
rfemur -14.3923 -6.06179 -0.24308
rtibia 54.2236
rfoot -26.3565 1.8538
rtoes -19.633
lfemur -30.439 3.58284 -6.20874
ltibia 43.1816
lfoot -5.40489 -3.59477
ltoes -36.8552
3989
root 0.462487 16.4597 -0.818559 -19.8575 -77.5969 25.607
lowerback 16.1135 1.65632 -0.786532
upperback 2.1327 2.10407 2.14675
thorax -6.86711 1.02606 2.28207
lowerneck -24.8439 6.62517 -6.41009
upperneck 17.9243 11.7091 -1.4912
head 9.45819 4.76088 2.21724
rclavicle -1.94809e-014 -1.11319e-014
rhumerus -29.2605 -2.98794 -76.5338
rradius 86.9481
rwrist -14.1633
rhand -17.9199 23.5827
rfingers 7.12502
rthumb 8.34759 -6.23238
lclavicle -1.94809e-014 -1.11319e-014
lhumerus -16.9597 8.12303 81.4153
lradius 120.525
lwrist 7.40532
lhand -16.2665 9.34099
lfingers 7.12502
lthumb 9.94301 39.0862
rfemur -14.442 -5.75025 0.140648
rtibia 54.081
rfoot -27.2841 1.48992
rtoes -20.4178
lfemur -30.388 3.18548 -5.80403
ltibia 42.7883
lfoot -5.80749 -3.64393
ltoes -36.2686
3990
root 0.463796 16.4432 -0.871159 -19.2226 -77.4902 25.0587
lowerback 15.7659 1.5116 -0.633364
upperback 2.09123 1.95037 2.26906
thorax -6.71226 0.949781 2.36436
lowerneck -24.9797 6.71161 -6.42997
upperneck 17.9779 11.8946 -1.68442
head 9.50942 4.81331 2.18819
rclavicle 7.15625e-015 1.74931e-014
rhumerus -29.089 -2.85019 -77.2373
rradius 87.2179
rwrist -13.6497
rhand -17.7514 23.4799
rfingers 7.12502
rthumb 8.5103 -6.32865
lclavicle 7.15625e-015 1.74931e-014
lhumerus -16.7794 8.14105 81.2562
lradius 120.536
lwrist 7.54169
lhand -15.9547 9.25182
lfingers 7.12502
lthumb 10.2439 38.9824
rfemur -14.4219 -5.52564 0.505848
rtibia 53.9771
rfoot -28.1128 1.21512
rtoes -19.9595
lfemur -30.3186 2.77177 -5.45479
ltibia 42.3356
lfoot -5.95197 -3.42988
ltoes -36.1623
3991
root 0.462281 16.4315 -0.918303 -18.6851 -76.7268 24.378
lowerback 15.6648 1.18891 -0.468943
upperback 2.09918 1.55371 2.29715
thorax -6.625 0.75264 2.38689
lowerneck -25.2695 6.73628 -6.49227
upperneck 18.2078 11.9949 -1.69152
head 9.63541 4.83413 2.22899
rclavicle -5.96354e-015 -3.02153e-014
rhumerus -29.0555 -2.67086 -77.8651
rradius 87.5963
rwrist -13.3955
rhand -17.8614 23.6083
rfingers 7.12502
rthumb 8.40413 -6.20452
lclavicle -5.96354e-015 -3.02153e-014
lhumerus -16.63 7.95693 81.2349
lradius 120.632
lwrist 7.60848
lhand -15.9958 9.2153
lfingers 7.12502
lthumb 10.2042 38.9478
rfemur -13.8739 -5.95111 0.603338
rtibia 53.8758
rfoot -28.9232 1.05332
rtoes -18.9479
lfemur -30.1537 1.91228 -5.3776
ltibia 41.7752
lfoot -5.9515 -3.26117
ltoes -36.1747
3992
root 0.467059 16.4215 -0.971944 -19.4724 -76.798 25.1974
lowerback 15.5385 1.22823 -0.646677
upperback 2.07958 1.57739 2.29778
thorax -6.58244 0.769483 2.48469
lowerneck -25.3743 6.7915 -6.42736
upperneck 18.2025 12.0846 -1.81157
head 9.66242 4.86191 2.19568
rclavicle -3.57812e-015 1.27222e-014
rhumerus -29.1472 -2.50547 -78.5055
rradius 88.099
rwrist -13.1715
rhand -18.1567 23.7385
rfingers 7.12502
rthumb 8.11913 -6.08554
lclavicle -3.57812e-015 1.27222e-014
lhumerus -16.4594 7.76256 81.216
lradius 120.711
lwrist 7.6323
lhand -16.1243 9.15604
lfingers 7.12502
lthumb 10.0803 38.8946
rfemur -13.9681 -5.88439 0.731425
rtibia 53.8071
rfoot -29.5407 0.482555
rtoes -19.8798
lfemur -29.8125 1.98415 -5.38421
ltibia 41.1573
lfoot -6.02645 -3.11299
ltoes -35.7472
